<svg data-v-fde0c5aa="" xmlns="http://www.w3.org/2000/svg" viewBox="0 0 300 300" class="iconLeft"><!----><defs data-v-fde0c5aa=""><!----></defs><rect data-v-fde0c5aa="" fill="transparent" x="0" y="0" width="300px" height="300px" class="logo-background-square"></rect><defs data-v-fde0c5aa=""><!----></defs><g data-v-fde0c5aa="" id="a95b0d01-ca09-44ed-925c-618f44fdad82" fill="#2e3034" transform="matrix(4.700806091387489,0,0,4.700806091387489,133.4542978399716,115.66061118860173)"><path d="M5.59 3.29L7.64 3.29L4.93 10.32L4.93 10.32Q4.91 10.35 4.83 10.56L4.83 10.56L4.83 10.56Q4.75 10.78 4.56 11.09L4.56 11.09L4.56 11.09Q4.38 11.40 4.10 11.74L4.10 11.74L4.10 11.74Q3.82 12.08 3.42 12.38L3.42 12.38L3.42 12.38Q3.02 12.67 2.50 12.87L2.50 12.87L2.50 12.87Q1.97 13.06 1.32 13.06L1.32 13.06L1.32 11.45L1.32 11.45Q1.72 11.45 2.02 11.28L2.02 11.28L2.02 11.28Q2.31 11.10 2.51 10.89L2.51 10.89L2.51 10.89Q2.73 10.64 2.88 10.32L2.88 10.32L0.15 3.29L2.23 3.29L3.99 8.54L5.59 3.29ZM11.52 3.12L11.52 3.12L11.52 3.12Q11.98 3.12 12.52 3.27L12.52 3.27L12.52 3.27Q13.05 3.42 13.51 3.75L13.51 3.75L13.51 3.75Q13.97 4.07 14.27 4.59L14.27 4.59L14.27 4.59Q14.56 5.11 14.55 5.85L14.55 5.85L14.55 10.50L13.17 10.50L13.17 10.50Q13.17 10.50 13.13 10.33L13.13 10.33L13.13 10.33Q13.09 10.16 13.04 9.95L13.04 9.95L13.04 9.95Q12.99 9.74 12.95 9.58L12.95 9.58L12.95 9.58Q12.91 9.42 12.91 9.44L12.91 9.44L12.91 9.44Q12.71 9.79 12.39 10.05L12.39 10.05L12.39 10.05Q12.11 10.29 11.67 10.47L11.67 10.47L11.67 10.47Q11.23 10.65 10.58 10.65L10.58 10.65L10.58 10.65Q10.14 10.65 9.70 10.52L9.70 10.52L9.70 10.52Q9.27 10.39 8.93 10.13L8.93 10.13L8.93 10.13Q8.58 9.87 8.37 9.48L8.37 9.48L8.37 9.48Q8.15 9.09 8.13 8.57L8.13 8.57L8.13 8.57Q8.11 8.02 8.28 7.59L8.28 7.59L8.28 7.59Q8.46 7.17 8.79 6.86L8.79 6.86L8.79 6.86Q9.11 6.55 9.58 6.36L9.58 6.36L9.58 6.36Q10.04 6.17 10.58 6.10L10.58 6.10L10.58 6.10Q11.10 6.03 11.72 6.03L11.72 6.03L11.72 6.03Q12.33 6.03 12.82 6.06L12.82 6.06L12.82 5.84L12.82 5.84Q12.82 5.24 12.56 4.93L12.56 4.93L12.56 4.93Q12.29 4.63 11.89 4.54L11.89 4.54L11.89 4.54Q11.49 4.45 11.02 4.52L11.02 4.52L11.02 4.52Q10.54 4.59 10.11 4.72L10.11 4.72L10.11 4.72Q9.67 4.86 9.35 5.00L9.35 5.00L9.35 5.00Q9.02 5.15 8.93 5.22L8.93 5.22L8.93 3.81L8.93 3.81Q8.95 3.79 9.18 3.69L9.18 3.69L9.18 3.69Q9.42 3.58 9.79 3.46L9.79 3.46L9.79 3.46Q10.15 3.33 10.61 3.23L10.61 3.23L10.61 3.23Q11.06 3.12 11.52 3.12ZM12.42 8.68L12.42 8.68L12.42 8.68Q12.66 8.37 12.73 7.99L12.73 7.99L12.73 7.99Q12.81 7.62 12.81 7.20L12.81 7.20L12.00 7.20L12.00 7.20Q11.68 7.20 11.31 7.24L11.31 7.24L11.31 7.24Q10.95 7.28 10.64 7.41L10.64 7.41L10.64 7.41Q10.33 7.53 10.12 7.78L10.12 7.78L10.12 7.78Q9.91 8.02 9.91 8.44L9.91 8.44L9.91 8.44Q9.91 8.90 10.25 9.11L10.25 9.11L10.25 9.11Q10.60 9.32 11.10 9.32L11.10 9.32L11.10 9.32Q11.54 9.32 11.87 9.15L11.87 9.15L11.87 9.15Q12.19 8.97 12.42 8.68ZM19.24 9.20L19.24 9.20L19.24 9.20Q19.64 9.20 19.99 9.13L19.99 9.13L19.99 9.13Q20.16 9.09 20.33 9.04L20.33 9.04L20.34 10.50L20.34 10.50Q20.09 10.54 19.81 10.58L19.81 10.58L19.81 10.58Q19.57 10.61 19.25 10.63L19.25 10.63L19.25 10.63Q18.93 10.65 18.56 10.65L18.56 10.65L18.56 10.65Q18.03 10.60 17.63 10.33L17.63 10.33L17.63 10.33Q17.28 10.09 16.99 9.63L16.99 9.63L16.99 9.63Q16.70 9.16 16.70 8.30L16.70 8.30L16.70 5.36L15.33 5.36L15.33 3.99L16.70 3.99L16.70 1.97L18.56 1.55L18.56 3.99L20.26 3.99L20.26 5.36L18.59 5.36L18.59 8.20L18.59 8.20Q18.59 8.39 18.64 8.56L18.64 8.56L18.64 8.56Q18.69 8.74 18.78 8.88L18.78 8.88L18.78 8.88Q18.87 9.02 18.99 9.11L18.99 9.11L18.99 9.11Q19.11 9.20 19.24 9.20ZM25.09 3.12L25.09 3.12L25.09 3.12Q25.52 3.12 25.86 3.18L25.86 3.18L25.86 3.18Q26.19 3.23 26.43 3.30L26.43 3.30L26.43 3.30Q26.70 3.39 26.92 3.49L26.92 3.49L26.92 4.82L26.92 4.82Q26.38 4.65 25.74 4.59L25.74 4.59L25.74 4.59Q25.10 4.54 24.56 4.74L24.56 4.74L24.56 4.74Q24.01 4.94 23.65 5.45L23.65 5.45L23.65 5.45Q23.28 5.95 23.28 6.89L23.28 6.89L23.28 6.89Q23.28 7.87 23.65 8.38L23.65 8.38L23.65 8.38Q24.01 8.89 24.56 9.06L24.56 9.06L24.56 9.06Q25.10 9.24 25.74 9.15L25.74 9.15L25.74 9.15Q26.38 9.06 26.92 8.85L26.92 8.85L26.92 10.23L26.92 10.23Q26.71 10.36 26.43 10.44L26.43 10.44L26.43 10.44Q26.19 10.53 25.85 10.59L25.85 10.59L25.85 10.59Q25.51 10.65 25.07 10.65L25.07 10.65L25.07 10.65Q24.53 10.65 23.87 10.51L23.87 10.51L23.87 10.51Q23.21 10.37 22.65 9.97L22.65 9.97L22.65 9.97Q22.08 9.56 21.70 8.83L21.70 8.83L21.70 8.83Q21.32 8.09 21.32 6.89L21.32 6.89L21.32 6.89Q21.32 5.70 21.70 4.96L21.70 4.96L21.70 4.96Q22.08 4.21 22.65 3.81L22.65 3.81L22.65 3.81Q23.21 3.40 23.87 3.26L23.87 3.26L23.87 3.26Q24.53 3.12 25.09 3.12Z"></path></g><defs data-v-fde0c5aa=""><!----></defs><g data-v-fde0c5aa="" id="f7274931-4692-43f5-844f-c44ed3ed2200" stroke="none" fill="#488eff" transform="matrix(2.536231836928084,0,0,2.536231836928084,40,109.42029060915065)"><path d="M0 16.024L15.976 32 32 15.976 16.024 0 0 16.024zm15.989 7.323l-7.336-7.336 14.694-.022-7.358 7.358z"></path></g><!----></svg>